<svg width="23" height="23" viewBox="1.5 0 21 22" fill="none" xmlns="http://www.w3.org/2000/svg">
	<path d="M16.0627 16.8628L16.1753 16.4714C16.309 16.0061 16.2596 15.5767 16.0342 15.2602C15.8237 14.9689 15.4804 14.798 15.0603 14.778L7.10783 14.6767C7.08288 14.6763 7.05838 14.6699 7.03643 14.658C7.01448 14.6461 6.99572 14.6291 6.98176 14.6084C6.9678 14.5877 6.95905 14.5639 6.95625 14.539C6.95345 14.5142 6.95669 14.489 6.96569 14.4657C6.9792 14.4266 7.00387 14.3924 7.03663 14.3673C7.06938 14.3421 7.10879 14.3272 7.14994 14.3243L15.1793 14.2188C16.1269 14.1755 17.1629 13.4011 17.5241 12.4557L17.981 11.2572C17.994 11.2235 18.0004 11.1877 18 11.1516C17.9994 11.1325 17.9973 11.1135 17.9937 11.0947C17.7444 9.97983 17.1383 8.97716 16.2678 8.23935C15.3973 7.50153 14.3101 7.06899 13.1716 7.00758C12.0331 6.94617 10.9058 7.25926 9.96134 7.89917C9.01684 8.53909 8.3069 9.47077 7.93961 10.5524C7.54971 10.2619 7.07968 10.0996 6.59402 10.0875C6.10836 10.0755 5.63089 10.2144 5.22713 10.4851C4.82338 10.7558 4.51314 11.1451 4.33899 11.5996C4.16484 12.0541 4.13533 12.5514 4.2545 13.0234C3.78137 13.0356 3.31624 13.1485 2.88992 13.3544C2.46361 13.5604 2.08582 13.8548 1.7816 14.2181C1.47738 14.5814 1.25367 15.0054 1.12528 15.4619C0.996886 15.9183 0.966749 16.397 1.03686 16.866C1.04194 16.903 1.06017 16.9369 1.08822 16.9616C1.11627 16.9862 1.15225 16.9998 1.18953 17H15.8763C15.918 17.0004 15.9587 16.9873 15.9923 16.9625C16.0259 16.9378 16.0506 16.9028 16.0627 16.8628Z" fill="#252748"/>
	<path d="M18.3018 11C18.226 11 18.1464 11.0022 18.063 11.0067C18.0505 11.0071 18.0381 11.0097 18.0266 11.0145C18.0058 11.0213 17.9871 11.033 17.972 11.0486C17.9569 11.0642 17.946 11.0833 17.9402 11.104L17.599 12.2514C17.4534 12.7446 17.5069 13.1998 17.7514 13.5353C17.8749 13.6941 18.034 13.8227 18.2162 13.9114C18.3984 14 18.599 14.0462 18.8023 14.0464L20.6345 14.1582C20.6601 14.159 20.6852 14.1657 20.7077 14.1777C20.7302 14.1898 20.7495 14.2068 20.7641 14.2276C20.7796 14.2497 20.7894 14.2752 20.7928 14.3018C20.7962 14.3285 20.793 14.3556 20.7835 14.3808C20.7689 14.4222 20.7422 14.4585 20.7068 14.4851C20.6715 14.5117 20.6289 14.5276 20.5844 14.5306L18.6817 14.6425C17.6479 14.6894 16.5345 15.5092 16.1444 16.5101L16.0067 16.8635C16.001 16.8783 15.9989 16.8942 16.0006 16.91C16.0022 16.9257 16.0077 16.9409 16.0164 16.9542C16.0252 16.9675 16.037 16.9785 16.0509 16.9865C16.0649 16.9944 16.0805 16.9991 16.0966 16.9999H22.6509C22.6909 17.0009 22.73 16.9885 22.7618 16.9647C22.7936 16.9409 22.8163 16.9072 22.8261 16.8691C23.0215 16.1825 23.0527 15.4608 22.9174 14.7603C22.782 14.0598 22.4838 13.3997 22.0459 12.8314C21.6081 12.2631 21.0425 11.802 20.3934 11.4843C19.7442 11.1666 19.0292 11.0009 18.3041 11H18.3018Z" fill="#252748"/>
</svg>
