<svg width="256" height="60" viewBox="0 0 256 60" fill="none" xmlns="http://www.w3.org/2000/svg">
	<g clip-path="url(#clip0_4056_128529)">
		<rect width="70" height="60" fill="#2E2E2E"/>
		<path d="M43.001 39.678C44.1761 36.887 42.5737 35.5988 40.9713 35.5988L25.161 35.3842C24.7337 35.3842 24.7337 34.7401 25.2679 34.6327L41.2918 34.418C43.1078 34.3107 45.2443 32.8079 45.8853 30.8757C45.8853 30.8757 46.9535 28.6214 46.8467 28.2994C46.3843 26.0572 45.1992 24.0308 43.475 22.5337C41.7507 21.0366 39.5835 20.1524 37.3087 20.018C35.0339 19.8835 32.7785 20.5063 30.8914 21.7899C29.0044 23.0735 27.5911 24.9464 26.8702 27.1186C22.8109 24.4349 18.5378 28.0847 19.4992 32.0564C14.3716 32.3785 12.5556 36.9943 13.0897 39.7853C13.0897 39.8927 13.1965 40 13.4102 40H42.6805C42.7873 40 43.001 39.8927 43.001 39.678Z" fill="#F38020"/>
		<path d="M48.3423 28.7287C47.915 28.7287 47.7014 28.6214 47.5945 28.8361L47.0604 31.0903C46.5263 32.8079 47.3809 34.3107 49.1969 34.418L52.6154 34.6327C53.0427 34.6327 53.0427 35.2768 52.5085 35.3841L48.9833 35.4915C45.1375 35.9209 44.0693 39.678 44.0693 39.678C44.0693 39.8927 44.0693 40 44.2829 40H56.3543L56.6748 39.7853C57.038 38.492 57.0979 37.1316 56.8499 35.8111C56.6019 34.4906 56.0526 33.2458 55.2453 32.1745C54.4379 31.1032 53.3944 30.2345 52.1967 29.6366C50.999 29.0388 49.6797 28.728 48.3423 28.7287Z" fill="#FAAE40"/>
		<rect width="186" height="60" transform="translate(70)" fill="black"/>
		<path d="M86.6165 26.1406V24.8182H94.4964V26.1406H91.3196V35H89.7884V26.1406H86.6165ZM99.9167 31.8331V27.3636H101.408V35H99.9466V33.6776H99.867C99.6913 34.0852 99.4096 34.425 99.0218 34.6967C98.6374 34.9652 98.1584 35.0994 97.585 35.0994C97.0945 35.0994 96.6603 34.9917 96.2825 34.7763C95.908 34.5575 95.613 34.2344 95.3975 33.8068C95.1854 33.3793 95.0794 32.8506 95.0794 32.2209V27.3636H96.5659V32.0419C96.5659 32.5623 96.71 32.9766 96.9984 33.2848C97.2868 33.593 97.6613 33.7472 98.122 33.7472C98.4004 33.7472 98.6771 33.6776 98.9522 33.5384C99.2306 33.3991 99.461 33.1887 99.6433 32.907C99.8289 32.6252 99.92 32.2673 99.9167 31.8331ZM103.406 35V27.3636H104.842V28.5767H104.922C105.061 28.1657 105.306 27.8426 105.658 27.6072C106.012 27.3686 106.413 27.2493 106.861 27.2493C106.954 27.2493 107.063 27.2526 107.189 27.2592C107.318 27.2659 107.419 27.2741 107.492 27.2841V28.706C107.433 28.6894 107.326 28.6712 107.174 28.6513C107.022 28.6281 106.869 28.6165 106.717 28.6165C106.365 28.6165 106.052 28.6911 105.777 28.8402C105.505 28.986 105.29 29.1899 105.131 29.4517C104.972 29.7102 104.892 30.0052 104.892 30.3366V35H103.406ZM110.265 30.4659V35H108.779V27.3636H110.205V28.6065H110.3C110.476 28.2022 110.751 27.8774 111.125 27.6321C111.503 27.3868 111.979 27.2642 112.552 27.2642C113.072 27.2642 113.528 27.3736 113.919 27.5923C114.31 27.8078 114.614 28.1293 114.829 28.5568C115.044 28.9844 115.152 29.513 115.152 30.1428V35H113.666V30.3217C113.666 29.7682 113.521 29.3357 113.233 29.0241C112.945 28.7093 112.549 28.5518 112.045 28.5518C111.7 28.5518 111.394 28.6264 111.125 28.7756C110.86 28.9247 110.65 29.1435 110.494 29.4318C110.341 29.7169 110.265 30.0616 110.265 30.4659ZM122.868 29.228L121.521 29.4666C121.464 29.2943 121.375 29.1302 121.252 28.9744C121.133 28.8187 120.971 28.6911 120.765 28.5916C120.56 28.4922 120.303 28.4425 119.994 28.4425C119.574 28.4425 119.222 28.5369 118.941 28.7259C118.659 28.9115 118.518 29.1518 118.518 29.4467C118.518 29.7019 118.612 29.9074 118.801 30.0632C118.99 30.219 119.295 30.3466 119.716 30.446L120.929 30.7244C121.632 30.8868 122.155 31.1371 122.5 31.4751C122.845 31.8132 123.017 32.2524 123.017 32.7926C123.017 33.25 122.885 33.6577 122.619 34.0156C122.358 34.3703 121.991 34.6487 121.521 34.8509C121.053 35.053 120.512 35.1541 119.895 35.1541C119.04 35.1541 118.342 34.9718 117.802 34.6072C117.262 34.2393 116.93 33.7173 116.808 33.0412L118.244 32.8224C118.334 33.197 118.518 33.4804 118.796 33.6726C119.075 33.8615 119.438 33.956 119.885 33.956C120.372 33.956 120.762 33.8549 121.053 33.6527C121.345 33.4472 121.491 33.197 121.491 32.902C121.491 32.6634 121.401 32.4628 121.222 32.3004C121.047 32.138 120.777 32.0154 120.412 31.9325L119.119 31.6491C118.407 31.4867 117.88 31.2282 117.539 30.8736C117.2 30.5189 117.031 30.0698 117.031 29.5263C117.031 29.0755 117.157 28.6811 117.409 28.343C117.661 28.005 118.009 27.7415 118.453 27.5526C118.897 27.3603 119.406 27.2642 119.98 27.2642C120.805 27.2642 121.454 27.4432 121.928 27.8011C122.402 28.1558 122.716 28.6314 122.868 29.228ZM128.216 27.3636V28.5568H124.045V27.3636H128.216ZM125.164 25.5341H126.65V32.7578C126.65 33.0462 126.693 33.2633 126.779 33.4091C126.866 33.5516 126.977 33.6494 127.113 33.7024C127.252 33.7521 127.403 33.777 127.565 33.777C127.684 33.777 127.789 33.7687 127.878 33.7521C127.968 33.7356 128.037 33.7223 128.087 33.7124L128.355 34.9403C128.269 34.9735 128.147 35.0066 127.988 35.0398C127.828 35.0762 127.63 35.0961 127.391 35.0994C127 35.1061 126.635 35.0365 126.297 34.8906C125.959 34.7448 125.686 34.5194 125.477 34.2145C125.268 33.9096 125.164 33.5268 125.164 33.0661V25.5341ZM129.861 35V27.3636H131.347V35H129.861ZM130.611 26.1854C130.353 26.1854 130.131 26.0992 129.945 25.9268C129.763 25.7512 129.672 25.5424 129.672 25.3004C129.672 25.0552 129.763 24.8464 129.945 24.674C130.131 24.4983 130.353 24.4105 130.611 24.4105C130.87 24.4105 131.09 24.4983 131.273 24.674C131.458 24.8464 131.551 25.0552 131.551 25.3004C131.551 25.5424 131.458 25.7512 131.273 25.9268C131.09 26.0992 130.87 26.1854 130.611 26.1854ZM134.833 24.8182V35H133.347V24.8182H134.833ZM140.124 35.1541C139.372 35.1541 138.724 34.9934 138.181 34.6719C137.64 34.3471 137.223 33.8913 136.928 33.3047C136.636 32.7147 136.49 32.0237 136.49 31.2315C136.49 30.4493 136.636 29.7599 136.928 29.1634C137.223 28.5668 137.634 28.1011 138.161 27.7663C138.691 27.4316 139.311 27.2642 140.02 27.2642C140.451 27.2642 140.869 27.3355 141.273 27.478C141.677 27.6205 142.04 27.8442 142.362 28.1491C142.683 28.4541 142.937 28.8501 143.122 29.3374C143.308 29.8213 143.401 30.4096 143.401 31.1023V31.6293H137.33V30.5156H141.944C141.944 30.1245 141.865 29.7782 141.705 29.4766C141.546 29.1716 141.323 28.9313 141.034 28.7557C140.749 28.58 140.414 28.4922 140.03 28.4922C139.612 28.4922 139.248 28.5949 138.936 28.8004C138.628 29.0026 138.389 29.2678 138.22 29.5959C138.055 29.9207 137.972 30.2737 137.972 30.6548V31.5249C137.972 32.0353 138.061 32.4695 138.24 32.8274C138.423 33.1854 138.676 33.4588 139.001 33.6477C139.326 33.8333 139.705 33.9261 140.139 33.9261C140.421 33.9261 140.678 33.8864 140.91 33.8068C141.142 33.724 141.343 33.6013 141.512 33.4389C141.681 33.2765 141.81 33.076 141.899 32.8374L143.306 33.0909C143.194 33.5052 142.991 33.8681 142.7 34.1797C142.411 34.4879 142.048 34.7282 141.611 34.9006C141.177 35.0696 140.681 35.1541 140.124 35.1541Z" fill="white"/>
	</g>
	<rect x="0.5" y="0.5" width="255" height="59" rx="2.5" stroke="black"/>
	<defs>
		<clipPath id="clip0_4056_128529">
			<rect width="256" height="60" rx="3" fill="white"/>
		</clipPath>
	</defs>
</svg>
